# xmcd
#
# Track frame offsets:
#       150
#       23145
#       43532
#       55725
#       94912
#       178692
#
# Disc length: 2806 seconds
#
# Revision: 0
# Processed by: cddbd v1.5.1PL0 Copyright (c) Steve Scherf et al.
# Submitted via: CD-DA_X-Tractor v0.24
#
DISCID=450af406
DTITLE=John Martyn - Live At Leeds
DYEAR=1975
DGENRE=folk
TTITLE0=Outside In
TTITLE1=Solid Air
TTITLE2=Make No Mistake
TTITLE3=Bless The Weather
TTITLE4=The Man In The Station
TTITLE5=I'd Rather Be The Devil
EXTD=
EXTT0=
EXTT1=
EXTT2=
EXTT3=
EXTT4=
EXTT5=
PLAYORDER=
